NotoSerifNyiakengPuachueHmong-Bold.ufo
<glyph name="ma-hmnp" format="2">
	<unicode hex="1E100"/>
	<advance width="654"/>
	<outline>
		<contour>
			<point x="77" y="0" type="line"/>
			<point x="152" y="0" type="line"/>
			<point x="152" y="447" type="line" smooth="yes"/>
			<point x="152" y="503"/>
			<point x="171" y="528"/>
			<point x="230" y="528" type="curve" smooth="yes"/>
			<point x="360" y="528" type="line" smooth="yes"/>
			<point x="408" y="528"/>
			<point x="428" y="529"/>
			<point x="464" y="533" type="curve"/>
			<point x="464" y="528" type="line"/>
			<point x="444" y="512"/>
			<point x="434" y="485"/>
			<point x="434" y="451" type="curve" smooth="yes"/>
			<point x="434" y="400"/>
			<point x="459" y="351"/>
			<point x="484" y="305" type="curve" smooth="yes"/>
			<point x="505" y="267"/>
			<point x="522" y="233"/>
			<point x="522" y="204" type="curve" smooth="yes"/>
			<point x="522" y="164"/>
			<point x="511" y="152"/>
			<point x="435" y="152" type="curve" smooth="yes"/>
			<point x="357" y="152"/>
			<point x="339" y="159"/>
			<point x="339" y="186" type="curve" smooth="yes"/>
			<point x="339" y="210"/>
			<point x="364" y="217"/>
			<point x="430" y="217" type="curve"/>
			<point x="430" y="286"/>
			<point x="414" y="323"/>
			<point x="368" y="323" type="curve" smooth="yes"/>
			<point x="321" y="323"/>
			<point x="270" y="283"/>
			<point x="270" y="166" type="curve" smooth="yes"/>
			<point x="270" y="58"/>
			<point x="313" y="-10"/>
			<point x="436" y="-10" type="curve" smooth="yes"/>
			<point x="541" y="-10"/>
			<point x="600" y="40"/>
			<point x="600" y="176" type="curve" smooth="yes"/>
			<point x="600" y="244"/>
			<point x="573" y="299"/>
			<point x="547" y="348" type="curve" smooth="yes"/>
			<point x="526" y="388"/>
			<point x="508" y="426"/>
			<point x="508" y="465" type="curve" smooth="yes"/>
			<point x="508" y="511"/>
			<point x="519" y="530"/>
			<point x="576" y="542" type="curve"/>
			<point x="576" y="680" type="line"/>
			<point x="254" y="680" type="line" smooth="yes"/>
			<point x="131" y="680"/>
			<point x="77" y="621"/>
			<point x="77" y="473" type="curve" smooth="yes"/>
		</contour>
	</outline>
	<anchor name="top" x="337" y="680"/>
</glyph>
<glyph name="nta-hmnp" format="2">
	<unicode hex="1E102"/>
	<advance width="712"/>
	<outline>
		<contour>
			<point x="79" y="0" type="line"/>
			<point x="154" y="0" type="line"/>
			<point x="154" y="499" type="line"/>
			<point x="169" y="499" type="line" smooth="yes"/>
			<point x="188" y="499"/>
			<point x="199" y="488"/>
			<point x="207" y="461" type="curve" smooth="yes"/>
			<point x="305" y="137" type="line" smooth="yes"/>
			<point x="339" y="26"/>
			<point x="372" y="-10"/>
			<point x="472" y="-10" type="curve" smooth="yes"/>
			<point x="597" y="-10"/>
			<point x="640" y="46"/>
			<point x="640" y="221" type="curve" smooth="yes"/>
			<point x="640" y="483" type="line" smooth="yes"/>
			<point x="640" y="635"/>
			<point x="596" y="694"/>
			<point x="494" y="694" type="curve" smooth="yes"/>
			<point x="392" y="694"/>
			<point x="349" y="634"/>
			<point x="349" y="513" type="curve" smooth="yes"/>
			<point x="349" y="412"/>
			<point x="377" y="359"/>
			<point x="431" y="359" type="curve" smooth="yes"/>
			<point x="475" y="359"/>
			<point x="495" y="395"/>
			<point x="495" y="465" type="curve"/>
			<point x="434" y="465"/>
			<point x="418" y="472"/>
			<point x="418" y="496" type="curve" smooth="yes"/>
			<point x="418" y="523"/>
			<point x="436" y="532"/>
			<point x="491" y="532" type="curve" smooth="yes"/>
			<point x="552" y="532"/>
			<point x="565" y="521"/>
			<point x="565" y="468" type="curve" smooth="yes"/>
			<point x="565" y="244" type="line" smooth="yes"/>
			<point x="565" y="174"/>
			<point x="539" y="152"/>
			<point x="461" y="152" type="curve" smooth="yes"/>
			<point x="399" y="152"/>
			<point x="375" y="166"/>
			<point x="358" y="222" type="curve" smooth="yes"/>
			<point x="257" y="554" type="line" smooth="yes"/>
			<point x="224" y="662"/>
			<point x="209" y="680"/>
			<point x="149" y="680" type="curve" smooth="yes"/>
			<point x="79" y="680" type="line"/>
		</contour>
	</outline>
	<anchor name="top" x="360" y="680"/>
</glyph>
<glyph name="ta-hmnp" format="2">
	<unicode hex="1E103"/>
	<advance width="669"/>
	<outline>
		<contour>
			<point x="358" y="-10" type="curve" smooth="yes"/>
			<point x="538" y="-10"/>
			<point x="597" y="47"/>
			<point x="597" y="221" type="curve" smooth="yes"/>
			<point x="597" y="483" type="line" smooth="yes"/>
			<point x="597" y="634"/>
			<point x="557" y="694"/>
			<point x="455" y="694" type="curve" smooth="yes"/>
			<point x="354" y="694"/>
			<point x="306" y="636"/>
			<point x="306" y="502" type="curve" smooth="yes"/>
			<point x="306" y="401"/>
			<point x="333" y="347"/>
			<point x="388" y="347" type="curve" smooth="yes"/>
			<point x="432" y="347"/>
			<point x="452" y="383"/>
			<point x="452" y="465" type="curve"/>
			<point x="390" y="465"/>
			<point x="375" y="472"/>
			<point x="375" y="496" type="curve" smooth="yes"/>
			<point x="375" y="524"/>
			<point x="394" y="532"/>
			<point x="448" y="532" type="curve" smooth="yes"/>
			<point x="510" y="532"/>
			<point x="522" y="520"/>
			<point x="522" y="468" type="curve" smooth="yes"/>
			<point x="522" y="244" type="line" smooth="yes"/>
			<point x="522" y="170"/>
			<point x="490" y="152"/>
			<point x="356" y="152" type="curve" smooth="yes"/>
			<point x="226" y="152"/>
			<point x="195" y="169"/>
			<point x="195" y="244" type="curve" smooth="yes"/>
			<point x="195" y="553" type="line" smooth="yes"/>
			<point x="195" y="655"/>
			<point x="175" y="694"/>
			<point x="124" y="694" type="curve" smooth="yes"/>
			<point x="64" y="694"/>
			<point x="35" y="643"/>
			<point x="35" y="537" type="curve"/>
			<point x="102" y="537"/>
			<point x="120" y="521"/>
			<point x="120" y="462" type="curve" smooth="yes"/>
			<point x="120" y="221" type="line" smooth="yes"/>
			<point x="120" y="47"/>
			<point x="178" y="-10"/>
		</contour>
	</outline>
	<anchor name="top" x="347" y="680"/>
</glyph>
<glyph name="ha-hmnp" format="2">
	<unicode hex="1E104"/>
	<advance width="698"/>
	<outline>
		<contour>
			<point x="232" y="-10" type="curve" smooth="yes"/>
			<point x="339" y="-10"/>
			<point x="393" y="40"/>
			<point x="393" y="195" type="curve" smooth="yes"/>
			<point x="393" y="458" type="line" smooth="yes"/>
			<point x="393" y="517"/>
			<point x="409" y="532"/>
			<point x="469" y="532" type="curve" smooth="yes"/>
			<point x="531" y="532"/>
			<point x="546" y="518"/>
			<point x="546" y="458" type="curve" smooth="yes"/>
			<point x="546" y="0" type="line"/>
			<point x="621" y="0" type="line"/>
			<point x="621" y="500" type="line" smooth="yes"/>
			<point x="621" y="637"/>
			<point x="574" y="694"/>
			<point x="477" y="694" type="curve" smooth="yes"/>
			<point x="418" y="694"/>
			<point x="376" y="662"/>
			<point x="360" y="606" type="curve"/>
			<point x="355" y="606" type="line"/>
			<point x="336" y="664"/>
			<point x="288" y="694"/>
			<point x="221" y="694" type="curve" smooth="yes"/>
			<point x="118" y="694"/>
			<point x="62" y="634"/>
			<point x="62" y="515" type="curve" smooth="yes"/>
			<point x="62" y="411"/>
			<point x="107" y="366"/>
			<point x="156" y="366" type="curve" smooth="yes"/>
			<point x="199" y="366"/>
			<point x="222" y="400"/>
			<point x="222" y="467" type="curve"/>
			<point x="146" y="467"/>
			<point x="131" y="474"/>
			<point x="131" y="499" type="curve" smooth="yes"/>
			<point x="131" y="523"/>
			<point x="157" y="532"/>
			<point x="225" y="532" type="curve" smooth="yes"/>
			<point x="309" y="532"/>
			<point x="318" y="521"/>
			<point x="318" y="458" type="curve" smooth="yes"/>
			<point x="318" y="226" type="line" smooth="yes"/>
			<point x="318" y="163"/>
			<point x="309" y="152"/>
			<point x="224" y="152" type="curve" smooth="yes"/>
			<point x="153" y="152"/>
			<point x="131" y="160"/>
			<point x="131" y="184" type="curve" smooth="yes"/>
			<point x="131" y="209"/>
			<point x="147" y="217"/>
			<point x="222" y="217" type="curve"/>
			<point x="222" y="284"/>
			<point x="203" y="318"/>
			<point x="160" y="318" type="curve" smooth="yes"/>
			<point x="111" y="318"/>
			<point x="62" y="274"/>
			<point x="62" y="163" type="curve" smooth="yes"/>
			<point x="62" y="51"/>
			<point x="112" y="-10"/>
		</contour>
	</outline>
	<anchor name="top" x="344" y="680"/>
</glyph>
<glyph name="nka-hmnp" format="2">
	<unicode hex="1E107"/>
	<advance width="725"/>
	<outline>
		<contour>
			<point x="179" y="-10" type="curve" smooth="yes"/>
			<point x="266" y="-10"/>
			<point x="305" y="43"/>
			<point x="305" y="163" type="curve" smooth="yes"/>
			<point x="305" y="695" type="line" smooth="yes"/>
			<point x="305" y="798"/>
			<point x="287" y="834"/>
			<point x="235" y="834" type="curve" smooth="yes"/>
			<point x="176" y="834"/>
			<point x="148" y="787"/>
			<point x="148" y="691" type="curve"/>
			<point x="216" y="691"/>
			<point x="235" y="674"/>
			<point x="235" y="616" type="curve" smooth="yes"/>
			<point x="235" y="180" type="line" smooth="yes"/>
			<point x="235" y="142"/>
			<point x="218" y="127"/>
			<point x="176" y="127" type="curve" smooth="yes"/>
			<point x="136" y="127"/>
			<point x="119" y="142"/>
			<point x="119" y="179" type="curve" smooth="yes"/>
			<point x="119" y="220"/>
			<point x="138" y="237"/>
			<point x="208" y="250" type="curve" smooth="yes"/>
			<point x="497" y="305" type="line" smooth="yes"/>
			<point x="615" y="327"/>
			<point x="650" y="378"/>
			<point x="650" y="521" type="curve" smooth="yes"/>
			<point x="650" y="645"/>
			<point x="614" y="694"/>
			<point x="522" y="694" type="curve" smooth="yes"/>
			<point x="439" y="694"/>
			<point x="400" y="637"/>
			<point x="400" y="517" type="curve" smooth="yes"/>
			<point x="400" y="163" type="line" smooth="yes"/>
			<point x="400" y="35"/>
			<point x="437" y="-10"/>
			<point x="543" y="-10" type="curve" smooth="yes"/>
			<point x="621" y="-10"/>
			<point x="665" y="38"/>
			<point x="665" y="124" type="curve" smooth="yes"/>
			<point x="665" y="186"/>
			<point x="645" y="223"/>
			<point x="610" y="223" type="curve" smooth="yes"/>
			<point x="605" y="223"/>
			<point x="599" y="222"/>
			<point x="591" y="220" type="curve"/>
			<point x="594" y="211"/>
			<point x="596" y="196"/>
			<point x="596" y="182" type="curve" smooth="yes"/>
			<point x="596" y="145"/>
			<point x="581" y="133"/>
			<point x="535" y="133" type="curve" smooth="yes"/>
			<point x="486" y="133"/>
			<point x="470" y="147"/>
			<point x="470" y="190" type="curve" smooth="yes"/>
			<point x="470" y="500" type="line" smooth="yes"/>
			<point x="470" y="541"/>
			<point x="487" y="557"/>
			<point x="527" y="557" type="curve" smooth="yes"/>
			<point x="566" y="557"/>
			<point x="583" y="540"/>
			<point x="583" y="501" type="curve" smooth="yes"/>
			<point x="583" y="461"/>
			<point x="566" y="447"/>
			<point x="497" y="434" type="curve" smooth="yes"/>
			<point x="208" y="379" type="line" smooth="yes"/>
			<point x="88" y="356"/>
			<point x="52" y="303"/>
			<point x="52" y="161" type="curve" smooth="yes"/>
			<point x="52" y="41"/>
			<point x="90" y="-10"/>
		</contour>
	</outline>
	<anchor name="top" x="518" y="680"/>
</glyph>
<glyph name="ca-hmnp" format="2">
	<unicode hex="1E108"/>
	<advance width="681"/>
	<outline>
		<contour>
			<point x="240" y="-10" type="curve" smooth="yes"/>
			<point x="363" y="-10"/>
			<point x="412" y="46"/>
			<point x="412" y="247" type="curve" smooth="yes"/>
			<point x="412" y="432"/>
			<point x="358" y="503"/>
			<point x="243" y="503" type="curve" smooth="yes"/>
			<point x="159" y="503" type="line"/>
			<point x="159" y="680" type="line"/>
			<point x="84" y="680" type="line"/>
			<point x="84" y="353" type="line"/>
			<point x="249" y="353" type="line" smooth="yes"/>
			<point x="320" y="353"/>
			<point x="341" y="334"/>
			<point x="341" y="247" type="curve" smooth="yes"/>
			<point x="341" y="156"/>
			<point x="327" y="141"/>
			<point x="238" y="141" type="curve" smooth="yes"/>
			<point x="150" y="141"/>
			<point x="136" y="148"/>
			<point x="136" y="171" type="curve" smooth="yes"/>
			<point x="136" y="195"/>
			<point x="155" y="203"/>
			<point x="222" y="203" type="curve"/>
			<point x="222" y="263"/>
			<point x="211" y="300"/>
			<point x="160" y="300" type="curve" smooth="yes"/>
			<point x="102" y="300"/>
			<point x="67" y="250"/>
			<point x="67" y="157" type="curve" smooth="yes"/>
			<point x="67" y="47"/>
			<point x="116" y="-10"/>
		</contour>
		<contour>
			<point x="529" y="0" type="line"/>
			<point x="604" y="0" type="line"/>
			<point x="604" y="493" type="line" smooth="yes"/>
			<point x="604" y="639"/>
			<point x="562" y="694"/>
			<point x="446" y="694" type="curve" smooth="yes"/>
			<point x="330" y="694"/>
			<point x="288" y="639"/>
			<point x="288" y="493" type="curve" smooth="yes"/>
			<point x="288" y="424" type="line"/>
			<point x="363" y="424" type="line"/>
			<point x="363" y="462" type="line" smooth="yes"/>
			<point x="363" y="515"/>
			<point x="382" y="532"/>
			<point x="446" y="532" type="curve" smooth="yes"/>
			<point x="510" y="532"/>
			<point x="529" y="515"/>
			<point x="529" y="462" type="curve" smooth="yes"/>
		</contour>
	</outline>
	<anchor name="top" x="343" y="680"/>
</glyph>
<glyph name="sa-hmnp" format="2">
	<unicode hex="1E10A"/>
	<advance width="716"/>
	<outline>
		<contour>
			<point x="380" y="-10" type="curve" smooth="yes"/>
			<point x="583" y="-10"/>
			<point x="639" y="44"/>
			<point x="639" y="221" type="curve" smooth="yes"/>
			<point x="639" y="680" type="line"/>
			<point x="564" y="680" type="line"/>
			<point x="564" y="257" type="line" smooth="yes"/>
			<point x="564" y="161"/>
			<point x="532" y="152"/>
			<point x="380" y="152" type="curve" smooth="yes"/>
			<point x="228" y="152"/>
			<point x="195" y="161"/>
			<point x="195" y="257" type="curve" smooth="yes"/>
			<point x="195" y="553" type="line" smooth="yes"/>
			<point x="195" y="655"/>
			<point x="175" y="694"/>
			<point x="124" y="694" type="curve" smooth="yes"/>
			<point x="64" y="694"/>
			<point x="35" y="643"/>
			<point x="35" y="537" type="curve"/>
			<point x="102" y="537"/>
			<point x="120" y="521"/>
			<point x="120" y="462" type="curve" smooth="yes"/>
			<point x="120" y="221" type="line" smooth="yes"/>
			<point x="120" y="44"/>
			<point x="176" y="-10"/>
		</contour>
		<contour>
			<point x="342" y="47" type="line"/>
			<point x="417" y="47" type="line"/>
			<point x="417" y="680" type="line"/>
			<point x="342" y="680" type="line"/>
		</contour>
	</outline>
	<anchor name="top" x="380" y="680"/>
</glyph>
<glyph name="ka-hmnp" format="2">
	<unicode hex="1E10E"/>
	<advance width="603"/>
	<outline>
		<contour>
			<point x="300" y="-10" type="curve" smooth="yes"/>
			<point x="477" y="-10"/>
			<point x="531" y="43"/>
			<point x="531" y="221" type="curve" smooth="yes"/>
			<point x="531" y="464" type="line" smooth="yes"/>
			<point x="531" y="631"/>
			<point x="475" y="694"/>
			<point x="329" y="694" type="curve" smooth="yes"/>
			<point x="231" y="694"/>
			<point x="179" y="664"/>
			<point x="158" y="592" type="curve"/>
			<point x="153" y="592" type="line"/>
			<point x="155" y="627"/>
			<point x="156" y="647"/>
			<point x="156" y="665" type="curve" smooth="yes"/>
			<point x="156" y="680" type="line"/>
			<point x="81" y="680" type="line"/>
			<point x="81" y="403" type="line"/>
			<point x="156" y="403" type="line"/>
			<point x="156" y="447" type="line" smooth="yes"/>
			<point x="156" y="513"/>
			<point x="193" y="532"/>
			<point x="309" y="532" type="curve" smooth="yes"/>
			<point x="425" y="532"/>
			<point x="456" y="509"/>
			<point x="456" y="443" type="curve" smooth="yes"/>
			<point x="456" y="244" type="line" smooth="yes"/>
			<point x="456" y="174"/>
			<point x="425" y="152"/>
			<point x="300" y="152" type="curve" smooth="yes"/>
			<point x="177" y="152"/>
			<point x="144" y="168"/>
			<point x="144" y="232" type="curve" smooth="yes"/>
			<point x="144" y="248"/>
			<point x="146" y="262"/>
			<point x="150" y="279" type="curve"/>
			<point x="144" y="282"/>
			<point x="140" y="283"/>
			<point x="133" y="283" type="curve" smooth="yes"/>
			<point x="95" y="283"/>
			<point x="69" y="236"/>
			<point x="69" y="172" type="curve" smooth="yes"/>
			<point x="69" y="39"/>
			<point x="134" y="-10"/>
		</contour>
	</outline>
	<anchor name="top" x="309" y="680"/>
</glyph>
<glyph name="da-hmnp" format="2">
	<unicode hex="1E10F"/>
	<advance width="629"/>
	<outline>
		<contour>
			<point x="280" y="-10" type="curve" smooth="yes"/>
			<point x="395" y="-10"/>
			<point x="437" y="19"/>
			<point x="453" y="102" type="curve"/>
			<point x="458" y="102" type="line"/>
			<point x="471" y="15"/>
			<point x="497" y="-10"/>
			<point x="533" y="-10" type="curve" smooth="yes"/>
			<point x="569" y="-10"/>
			<point x="595" y="19"/>
			<point x="599" y="126" type="curve"/>
			<point x="526" y="137"/>
			<point x="516" y="161"/>
			<point x="516" y="236" type="curve" smooth="yes"/>
			<point x="516" y="277" type="line"/>
			<point x="441" y="277" type="line"/>
			<point x="441" y="241" type="line" smooth="yes"/>
			<point x="441" y="165"/>
			<point x="410" y="152"/>
			<point x="294" y="152" type="curve" smooth="yes"/>
			<point x="184" y="152"/>
			<point x="147" y="172"/>
			<point x="147" y="246" type="curve" smooth="yes"/>
			<point x="147" y="441" type="line" smooth="yes"/>
			<point x="147" y="511"/>
			<point x="184" y="532"/>
			<point x="301" y="532" type="curve" smooth="yes"/>
			<point x="432" y="532"/>
			<point x="457" y="509"/>
			<point x="457" y="443" type="curve" smooth="yes"/>
			<point x="457" y="429"/>
			<point x="456" y="416"/>
			<point x="452" y="400" type="curve"/>
			<point x="458" y="397"/>
			<point x="462" y="396"/>
			<point x="469" y="396" type="curve" smooth="yes"/>
			<point x="504" y="396"/>
			<point x="532" y="439"/>
			<point x="532" y="513" type="curve" smooth="yes"/>
			<point x="532" y="636"/>
			<point x="471" y="694"/>
			<point x="302" y="694" type="curve" smooth="yes"/>
			<point x="132" y="694"/>
			<point x="72" y="649"/>
			<point x="72" y="460" type="curve" smooth="yes"/>
			<point x="72" y="221" type="line" smooth="yes"/>
			<point x="72" y="53"/>
			<point x="125" y="-10"/>
		</contour>
	</outline>
	<anchor name="top" x="298" y="680"/>
</glyph>
<glyph name="ntxa-hmnp" format="2">
	<unicode hex="1E113"/>
	<advance width="608"/>
	<outline>
		<contour>
			<point x="312" y="-10" type="curve" smooth="yes"/>
			<point x="487" y="-10"/>
			<point x="550" y="50"/>
			<point x="550" y="164" type="curve" smooth="yes"/>
			<point x="550" y="243"/>
			<point x="523" y="281"/>
			<point x="470" y="281" type="curve" smooth="yes"/>
			<point x="429" y="281"/>
			<point x="409" y="253"/>
			<point x="409" y="195" type="curve"/>
			<point x="472" y="195"/>
			<point x="488" y="190"/>
			<point x="488" y="172" type="curve" smooth="yes"/>
			<point x="488" y="147"/>
			<point x="469" y="144"/>
			<point x="312" y="144" type="curve" smooth="yes"/>
			<point x="150" y="144"/>
			<point x="127" y="148"/>
			<point x="127" y="176" type="curve" smooth="yes"/>
			<point x="127" y="206"/>
			<point x="140" y="216"/>
			<point x="287" y="265" type="curve" smooth="yes"/>
			<point x="407" y="305"/>
			<point x="464" y="331"/>
			<point x="499" y="367" type="curve" smooth="yes"/>
			<point x="535" y="404"/>
			<point x="549" y="452"/>
			<point x="549" y="510" type="curve" smooth="yes"/>
			<point x="549" y="627"/>
			<point x="483" y="694"/>
			<point x="302" y="694" type="curve" smooth="yes"/>
			<point x="132" y="694"/>
			<point x="70" y="627"/>
			<point x="70" y="520" type="curve" smooth="yes"/>
			<point x="70" y="441"/>
			<point x="97" y="403"/>
			<point x="150" y="403" type="curve" smooth="yes"/>
			<point x="191" y="403"/>
			<point x="211" y="431"/>
			<point x="211" y="489" type="curve"/>
			<point x="148" y="489"/>
			<point x="132" y="494"/>
			<point x="132" y="512" type="curve" smooth="yes"/>
			<point x="132" y="537"/>
			<point x="151" y="540"/>
			<point x="302" y="540" type="curve" smooth="yes"/>
			<point x="457" y="540"/>
			<point x="480" y="536"/>
			<point x="480" y="508" type="curve" smooth="yes"/>
			<point x="480" y="478"/>
			<point x="469" y="468"/>
			<point x="321" y="420" type="curve" smooth="yes"/>
			<point x="203" y="382"/>
			<point x="142" y="351"/>
			<point x="113" y="320" type="curve" smooth="yes"/>
			<point x="75" y="280"/>
			<point x="58" y="236"/>
			<point x="58" y="174" type="curve" smooth="yes"/>
			<point x="58" y="46"/>
			<point x="123" y="-10"/>
		</contour>
	</outline>
	<anchor name="top" x="304" y="680"/>
</glyph>
<glyph name="txa-hmnp" format="2">
	<unicode hex="1E114"/>
	<advance width="687"/>
	<outline>
		<contour>
			<point x="90" y="0" type="curve"/>
			<point x="165" y="0" type="line"/>
			<point x="258" y="240"/>
			<point x="363" y="388"/>
			<point x="508" y="482" type="curve"/>
			<point x="511" y="478" type="line"/>
			<point x="467" y="378"/>
			<point x="445" y="272"/>
			<point x="445" y="166" type="curve" smooth="yes"/>
			<point x="445" y="51"/>
			<point x="478" y="-10"/>
			<point x="547" y="-10" type="curve" smooth="yes"/>
			<point x="604" y="-10"/>
			<point x="635" y="40"/>
			<point x="635" y="142" type="curve"/>
			<point x="543" y="142"/>
			<point x="527" y="154"/>
			<point x="527" y="232" type="curve" smooth="yes"/>
			<point x="527" y="326"/>
			<point x="575" y="475"/>
			<point x="625" y="532" type="curve"/>
			<point x="625" y="663" type="line"/>
			<point x="597" y="689" type="line"/>
			<point x="536" y="675"/>
			<point x="480" y="644"/>
			<point x="423" y="594" type="curve" smooth="yes"/>
			<point x="347" y="527"/>
			<point x="291" y="434"/>
			<point x="212" y="250" type="curve"/>
			<point x="207" y="250" type="line"/>
			<point x="231" y="395"/>
			<point x="239" y="472"/>
			<point x="239" y="543" type="curve" smooth="yes"/>
			<point x="239" y="641"/>
			<point x="207" y="694"/>
			<point x="148" y="694" type="curve" smooth="yes"/>
			<point x="85" y="694"/>
			<point x="51" y="636"/>
			<point x="51" y="542" type="curve"/>
			<point x="131" y="542"/>
			<point x="156" y="522"/>
			<point x="156" y="463" type="curve" smooth="yes"/>
			<point x="156" y="397"/>
			<point x="148" y="323"/>
		</contour>
	</outline>
	<anchor name="top" x="358" y="680"/>
</glyph>
<glyph name="fa-hmnp" format="2">
	<unicode hex="1E115"/>
	<advance width="606"/>
	<outline>
		<contour>
			<point x="69" y="0" type="line"/>
			<point x="144" y="0" type="line"/>
			<point x="144" y="129" type="line"/>
			<point x="149" y="129" type="line"/>
			<point x="210" y="44"/>
			<point x="276" y="-10"/>
			<point x="387" y="-10" type="curve" smooth="yes"/>
			<point x="499" y="-10"/>
			<point x="553" y="38"/>
			<point x="553" y="151" type="curve" smooth="yes"/>
			<point x="553" y="223"/>
			<point x="524" y="265"/>
			<point x="491" y="265" type="curve" smooth="yes"/>
			<point x="486" y="265"/>
			<point x="481" y="264"/>
			<point x="474" y="262" type="curve"/>
			<point x="477" y="251"/>
			<point x="479" y="236"/>
			<point x="479" y="217" type="curve" smooth="yes"/>
			<point x="479" y="165"/>
			<point x="458" y="152"/>
			<point x="370" y="152" type="curve" smooth="yes"/>
			<point x="274" y="152"/>
			<point x="222" y="168"/>
			<point x="155" y="209" type="curve"/>
			<point x="168" y="219"/>
			<point x="194" y="233"/>
			<point x="281" y="262" type="curve" smooth="yes"/>
			<point x="401" y="302"/>
			<point x="465" y="330"/>
			<point x="500" y="366" type="curve" smooth="yes"/>
			<point x="536" y="403"/>
			<point x="550" y="451"/>
			<point x="550" y="510" type="curve" smooth="yes"/>
			<point x="550" y="627"/>
			<point x="473" y="694"/>
			<point x="337" y="694" type="curve" smooth="yes"/>
			<point x="230" y="694"/>
			<point x="176" y="665"/>
			<point x="155" y="592" type="curve"/>
			<point x="150" y="592" type="line"/>
			<point x="152" y="624"/>
			<point x="153" y="641"/>
			<point x="153" y="661" type="curve" smooth="yes"/>
			<point x="153" y="680" type="line"/>
			<point x="78" y="680" type="line"/>
			<point x="78" y="423" type="line"/>
			<point x="153" y="423" type="line"/>
			<point x="153" y="455" type="line" smooth="yes"/>
			<point x="153" y="520"/>
			<point x="189" y="540"/>
			<point x="306" y="540" type="curve" smooth="yes"/>
			<point x="458" y="540"/>
			<point x="481" y="536"/>
			<point x="481" y="508" type="curve" smooth="yes"/>
			<point x="481" y="478"/>
			<point x="470" y="468"/>
			<point x="322" y="420" type="curve" smooth="yes"/>
			<point x="204" y="382"/>
			<point x="143" y="351"/>
			<point x="114" y="320" type="curve" smooth="yes"/>
			<point x="76" y="280"/>
			<point x="69" y="235"/>
			<point x="69" y="164" type="curve" smooth="yes"/>
		</contour>
	</outline>
	<anchor name="top" x="314" y="680"/>
</glyph>
<glyph name="ya-hmnp" format="2">
	<unicode hex="1E118"/>
	<advance width="671"/>
	<outline>
		<contour>
			<point x="360" y="-10" type="curve" smooth="yes"/>
			<point x="578" y="-10"/>
			<point x="617" y="68"/>
			<point x="617" y="197" type="curve" smooth="yes"/>
			<point x="617" y="290"/>
			<point x="586" y="334"/>
			<point x="529" y="369" type="curve"/>
			<point x="580" y="407"/>
			<point x="598" y="444"/>
			<point x="598" y="521" type="curve" smooth="yes"/>
			<point x="598" y="639"/>
			<point x="536" y="694"/>
			<point x="443" y="694" type="curve" smooth="yes"/>
			<point x="350" y="694"/>
			<point x="288" y="639"/>
			<point x="288" y="522" type="curve" smooth="yes"/>
			<point x="288" y="454"/>
			<point x="306" y="412"/>
			<point x="352" y="376" type="curve"/>
			<point x="296" y="345"/>
			<point x="269" y="311"/>
			<point x="269" y="270" type="curve" smooth="yes"/>
			<point x="269" y="237"/>
			<point x="282" y="215"/>
			<point x="329" y="211" type="curve"/>
			<point x="340" y="252"/>
			<point x="374" y="282"/>
			<point x="446" y="318" type="curve"/>
			<point x="510" y="283"/>
			<point x="537" y="256"/>
			<point x="537" y="217" type="curve" smooth="yes"/>
			<point x="537" y="162"/>
			<point x="492" y="152"/>
			<point x="356" y="152" type="curve" smooth="yes"/>
			<point x="189" y="152"/>
			<point x="152" y="173"/>
			<point x="152" y="249" type="curve" smooth="yes"/>
			<point x="152" y="680" type="line"/>
			<point x="77" y="680" type="line"/>
			<point x="77" y="226" type="line" smooth="yes"/>
			<point x="77" y="36"/>
			<point x="157" y="-10"/>
		</contour>
		<contour>
			<point x="442" y="421" type="curve"/>
			<point x="383" y="449"/>
			<point x="357" y="473"/>
			<point x="357" y="501" type="curve" smooth="yes"/>
			<point x="357" y="531"/>
			<point x="376" y="542"/>
			<point x="443" y="542" type="curve" smooth="yes"/>
			<point x="510" y="542"/>
			<point x="529" y="531"/>
			<point x="529" y="501" type="curve" smooth="yes"/>
			<point x="529" y="473"/>
			<point x="502" y="449"/>
		</contour>
	</outline>
	<anchor name="top" x="341" y="680"/>
</glyph>
<glyph name="nqa-hmnp" format="2">
	<unicode hex="1E119"/>
	<advance width="648"/>
	<outline>
		<contour>
			<point x="313" y="-10" type="curve" smooth="yes"/>
			<point x="512" y="-10"/>
			<point x="571" y="47"/>
			<point x="571" y="221" type="curve" smooth="yes"/>
			<point x="571" y="680" type="line"/>
			<point x="496" y="680" type="line"/>
			<point x="496" y="244" type="line" smooth="yes"/>
			<point x="496" y="170"/>
			<point x="464" y="152"/>
			<point x="334" y="152" type="curve" smooth="yes"/>
			<point x="150" y="152"/>
			<point x="132" y="156"/>
			<point x="132" y="179" type="curve" smooth="yes"/>
			<point x="132" y="200"/>
			<point x="155" y="212"/>
			<point x="229" y="241" type="curve" smooth="yes"/>
			<point x="299" y="269"/>
			<point x="330" y="288"/>
			<point x="357" y="319" type="curve" smooth="yes"/>
			<point x="389" y="355"/>
			<point x="404" y="409"/>
			<point x="404" y="496" type="curve" smooth="yes"/>
			<point x="404" y="646"/>
			<point x="346" y="694"/>
			<point x="236" y="694" type="curve" smooth="yes"/>
			<point x="128" y="694"/>
			<point x="73" y="637"/>
			<point x="73" y="535" type="curve" smooth="yes"/>
			<point x="73" y="455"/>
			<point x="104" y="409"/>
			<point x="160" y="409" type="curve" smooth="yes"/>
			<point x="202" y="409"/>
			<point x="220" y="438"/>
			<point x="220" y="503" type="curve"/>
			<point x="150" y="503"/>
			<point x="134" y="506"/>
			<point x="134" y="525" type="curve" smooth="yes"/>
			<point x="134" y="544"/>
			<point x="150" y="551"/>
			<point x="225" y="551" type="curve" smooth="yes"/>
			<point x="309" y="551"/>
			<point x="333" y="540"/>
			<point x="333" y="491" type="curve" smooth="yes"/>
			<point x="333" y="440"/>
			<point x="315" y="421"/>
			<point x="212" y="375" type="curve" smooth="yes"/>
			<point x="136" y="341"/>
			<point x="106" y="316"/>
			<point x="87" y="282" type="curve" smooth="yes"/>
			<point x="70" y="252"/>
			<point x="63" y="220"/>
			<point x="63" y="173" type="curve" smooth="yes"/>
			<point x="63" y="38"/>
			<point x="118" y="-10"/>
		</contour>
	</outline>
	<anchor name="top" x="330" y="680"/>
</glyph>
<glyph name="pa-hmnp" format="2">
	<unicode hex="1E11A"/>
	<advance width="606"/>
	<outline>
		<contour>
			<point x="295" y="-10" type="curve" smooth="yes"/>
			<point x="480" y="-10"/>
			<point x="534" y="44"/>
			<point x="534" y="219" type="curve" smooth="yes"/>
			<point x="534" y="460" type="line" smooth="yes"/>
			<point x="534" y="626"/>
			<point x="492" y="680"/>
			<point x="357" y="680" type="curve" smooth="yes"/>
			<point x="101" y="680" type="line"/>
			<point x="70" y="591" type="line"/>
			<point x="70" y="528" type="line"/>
			<point x="216" y="528" type="line"/>
			<point x="218" y="525" type="line"/>
			<point x="185" y="481"/>
			<point x="169" y="441"/>
			<point x="169" y="400" type="curve" smooth="yes"/>
			<point x="169" y="335"/>
			<point x="204" y="288"/>
			<point x="256" y="288" type="curve" smooth="yes"/>
			<point x="309" y="288"/>
			<point x="335" y="337"/>
			<point x="335" y="405" type="curve"/>
			<point x="281" y="405"/>
			<point x="250" y="409"/>
			<point x="250" y="443" type="curve" smooth="yes"/>
			<point x="250" y="468"/>
			<point x="265" y="496"/>
			<point x="287" y="528" type="curve"/>
			<point x="380" y="528" type="line" smooth="yes"/>
			<point x="435" y="528"/>
			<point x="459" y="510"/>
			<point x="459" y="442" type="curve" smooth="yes"/>
			<point x="459" y="245" type="line" smooth="yes"/>
			<point x="459" y="174"/>
			<point x="428" y="152"/>
			<point x="296" y="152" type="curve" smooth="yes"/>
			<point x="168" y="152"/>
			<point x="134" y="168"/>
			<point x="134" y="231" type="curve" smooth="yes"/>
			<point x="134" y="249"/>
			<point x="135" y="264"/>
			<point x="139" y="279" type="curve"/>
			<point x="133" y="282"/>
			<point x="129" y="283"/>
			<point x="122" y="283" type="curve" smooth="yes"/>
			<point x="83" y="283"/>
			<point x="59" y="236"/>
			<point x="59" y="174" type="curve" smooth="yes"/>
			<point x="59" y="40"/>
			<point x="121" y="-10"/>
		</contour>
	</outline>
	<anchor name="top" x="295" y="680"/>
</glyph>
<glyph name="xya-hmnp" format="2">
	<unicode hex="1E11B"/>
	<advance width="661"/>
	<outline>
		<contour>
			<point x="231" y="-10" type="curve" smooth="yes"/>
			<point x="356" y="-10"/>
			<point x="391" y="59"/>
			<point x="391" y="165" type="curve" smooth="yes"/>
			<point x="391" y="284"/>
			<point x="340" y="318"/>
			<point x="294" y="318" type="curve" smooth="yes"/>
			<point x="247" y="318"/>
			<point x="231" y="284"/>
			<point x="231" y="217" type="curve"/>
			<point x="300" y="217"/>
			<point x="322" y="210"/>
			<point x="322" y="184" type="curve" smooth="yes"/>
			<point x="322" y="161"/>
			<point x="304" y="152"/>
			<point x="232" y="152" type="curve" smooth="yes"/>
			<point x="157" y="152"/>
			<point x="140" y="161"/>
			<point x="140" y="213" type="curve" smooth="yes"/>
			<point x="140" y="282"/>
			<point x="173" y="366"/>
			<point x="277" y="528" type="curve"/>
			<point x="430" y="528" type="line" smooth="yes"/>
			<point x="485" y="528"/>
			<point x="509" y="510"/>
			<point x="509" y="442" type="curve" smooth="yes"/>
			<point x="509" y="0" type="line"/>
			<point x="584" y="0" type="line"/>
			<point x="584" y="460" type="line" smooth="yes"/>
			<point x="584" y="626"/>
			<point x="542" y="680"/>
			<point x="407" y="680" type="curve" smooth="yes"/>
			<point x="106" y="680" type="line"/>
			<point x="75" y="594" type="line"/>
			<point x="75" y="528" type="line"/>
			<point x="187" y="528" type="line"/>
			<point x="187" y="523" type="line"/>
			<point x="110" y="399"/>
			<point x="64" y="302"/>
			<point x="64" y="183" type="curve" smooth="yes"/>
			<point x="64" y="39"/>
			<point x="126" y="-10"/>
		</contour>
	</outline>
	<anchor name="top" x="342" y="680"/>
</glyph>
<glyph name="npa-hmnp" format="2">
	<unicode hex="1E11C"/>
	<advance width="630"/>
	<outline>
		<contour>
			<point x="75" y="0" type="line"/>
			<point x="150" y="0" type="line"/>
			<point x="150" y="26" type="line" smooth="yes"/>
			<point x="150" y="73"/>
			<point x="176" y="102"/>
			<point x="313" y="102" type="curve" smooth="yes"/>
			<point x="452" y="102"/>
			<point x="478" y="73"/>
			<point x="478" y="26" type="curve" smooth="yes"/>
			<point x="478" y="0" type="line"/>
			<point x="553" y="0" type="line"/>
			<point x="553" y="463" type="line" smooth="yes"/>
			<point x="553" y="637"/>
			<point x="481" y="694"/>
			<point x="305" y="694" type="curve" smooth="yes"/>
			<point x="138" y="694"/>
			<point x="69" y="639"/>
			<point x="69" y="502" type="curve" smooth="yes"/>
			<point x="69" y="411"/>
			<point x="101" y="359"/>
			<point x="158" y="359" type="curve" smooth="yes"/>
			<point x="204" y="359"/>
			<point x="228" y="395"/>
			<point x="228" y="465" type="curve"/>
			<point x="158" y="465"/>
			<point x="138" y="472"/>
			<point x="138" y="493" type="curve" smooth="yes"/>
			<point x="138" y="523"/>
			<point x="154" y="532"/>
			<point x="303" y="532" type="curve" smooth="yes"/>
			<point x="453" y="532"/>
			<point x="478" y="516"/>
			<point x="478" y="453" type="curve" smooth="yes"/>
			<point x="478" y="246" type="line" smooth="yes"/>
			<point x="478" y="223"/>
			<point x="479" y="198"/>
			<point x="481" y="156" type="curve"/>
			<point x="476" y="156" type="line"/>
			<point x="453" y="231"/>
			<point x="410" y="264"/>
			<point x="313" y="264" type="curve" smooth="yes"/>
			<point x="216" y="264"/>
			<point x="175" y="231"/>
			<point x="152" y="156" type="curve"/>
			<point x="147" y="156" type="line"/>
			<point x="149" y="198"/>
			<point x="150" y="223"/>
			<point x="150" y="246" type="curve" smooth="yes"/>
			<point x="150" y="277" type="line"/>
			<point x="75" y="277" type="line"/>
		</contour>
	</outline>
	<anchor name="top" x="306" y="680"/>
</glyph>
<glyph name="mla-hmnp" format="2">
	<unicode hex="1E120"/>
	<advance width="636"/>
	<outline>
		<contour>
			<point x="213" y="-10" type="curve" smooth="yes"/>
			<point x="276" y="-10"/>
			<point x="308" y="12"/>
			<point x="324" y="79" type="curve"/>
			<point x="329" y="79" type="line"/>
			<point x="343" y="19"/>
			<point x="377" y="-10"/>
			<point x="443" y="-10" type="curve" smooth="yes"/>
			<point x="532" y="-10"/>
			<point x="575" y="42"/>
			<point x="575" y="156" type="curve" smooth="yes"/>
			<point x="575" y="238"/>
			<point x="553" y="283"/>
			<point x="512" y="283" type="curve" smooth="yes"/>
			<point x="505" y="283"/>
			<point x="499" y="282"/>
			<point x="495" y="279" type="curve"/>
			<point x="498" y="266"/>
			<point x="500" y="240"/>
			<point x="500" y="222" type="curve" smooth="yes"/>
			<point x="500" y="170"/>
			<point x="484" y="152"/>
			<point x="432" y="152" type="curve" smooth="yes"/>
			<point x="380" y="152"/>
			<point x="363" y="170"/>
			<point x="363" y="221" type="curve" smooth="yes"/>
			<point x="363" y="278" type="line"/>
			<point x="288" y="278" type="line"/>
			<point x="288" y="221" type="line" smooth="yes"/>
			<point x="288" y="170"/>
			<point x="270" y="152"/>
			<point x="219" y="152" type="curve" smooth="yes"/>
			<point x="168" y="152"/>
			<point x="150" y="170"/>
			<point x="150" y="221" type="curve" smooth="yes"/>
			<point x="150" y="451" type="line" smooth="yes"/>
			<point x="150" y="524"/>
			<point x="174" y="532"/>
			<point x="345" y="532" type="curve" smooth="yes"/>
			<point x="481" y="532"/>
			<point x="505" y="527"/>
			<point x="505" y="499" type="curve" smooth="yes"/>
			<point x="505" y="473"/>
			<point x="484" y="465"/>
			<point x="413" y="465" type="curve"/>
			<point x="413" y="396"/>
			<point x="436" y="359"/>
			<point x="484" y="359" type="curve" smooth="yes"/>
			<point x="541" y="359"/>
			<point x="574" y="411"/>
			<point x="574" y="504" type="curve" smooth="yes"/>
			<point x="574" y="641"/>
			<point x="503" y="694"/>
			<point x="326" y="694" type="curve" smooth="yes"/>
			<point x="140" y="694"/>
			<point x="75" y="635"/>
			<point x="75" y="461" type="curve" smooth="yes"/>
			<point x="75" y="168" type="line" smooth="yes"/>
			<point x="75" y="42"/>
			<point x="116" y="-10"/>
		</contour>
	</outline>
	<anchor name="top" x="323" y="680"/>
</glyph>
<glyph name="ga-hmnp" format="2">
	<unicode hex="1E122"/>
	<advance width="607"/>
	<outline>
		<contour>
			<point x="315" y="-10" type="curve" smooth="yes"/>
			<point x="497" y="-10"/>
			<point x="554" y="47"/>
			<point x="554" y="172" type="curve" smooth="yes"/>
			<point x="554" y="263"/>
			<point x="522" y="314"/>
			<point x="465" y="314" type="curve" smooth="yes"/>
			<point x="419" y="314"/>
			<point x="396" y="278"/>
			<point x="396" y="215" type="curve"/>
			<point x="468" y="215"/>
			<point x="485" y="210"/>
			<point x="485" y="189" type="curve" smooth="yes"/>
			<point x="485" y="159"/>
			<point x="455" y="152"/>
			<point x="314" y="152" type="curve" smooth="yes"/>
			<point x="177" y="152"/>
			<point x="141" y="156"/>
			<point x="141" y="203" type="curve" smooth="yes"/>
			<point x="141" y="239"/>
			<point x="170" y="266"/>
			<point x="246" y="297" type="curve" smooth="yes"/>
			<point x="319" y="327"/>
			<point x="393" y="348"/>
			<point x="521" y="376" type="curve"/>
			<point x="521" y="497" type="line"/>
			<point x="380" y="497" type="line" smooth="yes"/>
			<point x="302" y="497"/>
			<point x="254" y="496"/>
			<point x="211" y="492" type="curve"/>
			<point x="211" y="497" type="line"/>
			<point x="349" y="530"/>
			<point x="411" y="566"/>
			<point x="411" y="626" type="curve" smooth="yes"/>
			<point x="411" y="665"/>
			<point x="386" y="688"/>
			<point x="321" y="703" type="curve"/>
			<point x="285" y="610"/>
			<point x="205" y="547"/>
			<point x="77" y="493" type="curve"/>
			<point x="77" y="376" type="line"/>
			<point x="122" y="376" type="line" smooth="yes"/>
			<point x="150" y="376"/>
			<point x="207" y="376"/>
			<point x="278" y="381" type="curve"/>
			<point x="278" y="376" type="line"/>
			<point x="119" y="329"/>
			<point x="55" y="272"/>
			<point x="55" y="167" type="curve" smooth="yes"/>
			<point x="55" y="40"/>
			<point x="128" y="-10"/>
		</contour>
	</outline>
	<anchor name="top" x="305" y="680"/>
</glyph>
<glyph name="aa-hmnp" format="2">
	<unicode hex="1E125"/>
	<advance width="509"/>
	<outline>
		<contour>
			<point x="266" y="-10" type="curve" smooth="yes"/>
			<point x="380" y="-10"/>
			<point x="429" y="37"/>
			<point x="429" y="145" type="curve" smooth="yes"/>
			<point x="429" y="228"/>
			<point x="399" y="267"/>
			<point x="347" y="267" type="curve" smooth="yes"/>
			<point x="305" y="267"/>
			<point x="285" y="240"/>
			<point x="285" y="181" type="curve"/>
			<point x="349" y="181"/>
			<point x="364" y="177"/>
			<point x="364" y="160" type="curve" smooth="yes"/>
			<point x="364" y="139"/>
			<point x="342" y="133"/>
			<point x="271" y="133" type="curve" smooth="yes"/>
			<point x="184" y="133"/>
			<point x="168" y="142"/>
			<point x="168" y="202" type="curve" smooth="yes"/>
			<point x="168" y="334" type="line"/>
			<point x="156" y="312" type="line"/>
			<point x="273" y="312" type="line" smooth="yes"/>
			<point x="410" y="312"/>
			<point x="454" y="355"/>
			<point x="454" y="496" type="curve" smooth="yes"/>
			<point x="454" y="649"/>
			<point x="402" y="694"/>
			<point x="243" y="694" type="curve" smooth="yes"/>
			<point x="103" y="694"/>
			<point x="42" y="659"/>
			<point x="42" y="575" type="curve" smooth="yes"/>
			<point x="42" y="533"/>
			<point x="57" y="498"/>
			<point x="87" y="498" type="curve" smooth="yes"/>
			<point x="92" y="498"/>
			<point x="99" y="499"/>
			<point x="107" y="501" type="curve"/>
			<point x="104" y="509"/>
			<point x="103" y="517"/>
			<point x="103" y="522" type="curve" smooth="yes"/>
			<point x="103" y="546"/>
			<point x="130" y="551"/>
			<point x="237" y="551" type="curve" smooth="yes"/>
			<point x="363" y="551"/>
			<point x="385" y="544"/>
			<point x="385" y="501" type="curve" smooth="yes"/>
			<point x="385" y="459"/>
			<point x="365" y="451"/>
			<point x="274" y="451" type="curve" smooth="yes"/>
			<point x="93" y="451" type="line"/>
			<point x="93" y="192" type="line" smooth="yes"/>
			<point x="93" y="47"/>
			<point x="140" y="-10"/>
		</contour>
	</outline>
	<anchor name="top" x="250" y="680"/>
</glyph>
<glyph name="i-hmnp" format="2">
	<unicode hex="1E126"/>
	<advance width="494"/>
	<outline>
		<contour>
			<point x="262" y="-10" type="curve" smooth="yes"/>
			<point x="379" y="-10"/>
			<point x="439" y="47"/>
			<point x="439" y="171" type="curve" smooth="yes"/>
			<point x="439" y="265"/>
			<point x="407" y="318"/>
			<point x="344" y="318" type="curve" smooth="yes"/>
			<point x="300" y="318"/>
			<point x="279" y="289"/>
			<point x="279" y="217" type="curve"/>
			<point x="350" y="217"/>
			<point x="370" y="211"/>
			<point x="370" y="189" type="curve" smooth="yes"/>
			<point x="370" y="160"/>
			<point x="346" y="152"/>
			<point x="262" y="152" type="curve" smooth="yes"/>
			<point x="168" y="152"/>
			<point x="150" y="163"/>
			<point x="150" y="225" type="curve" smooth="yes"/>
			<point x="150" y="469" type="line" smooth="yes"/>
			<point x="150" y="518"/>
			<point x="173" y="532"/>
			<point x="222" y="532" type="curve" smooth="yes"/>
			<point x="264" y="532"/>
			<point x="279" y="522"/>
			<point x="289" y="487" type="curve" smooth="yes"/>
			<point x="301" y="443" type="line" smooth="yes"/>
			<point x="315" y="390"/>
			<point x="336" y="367"/>
			<point x="375" y="367" type="curve" smooth="yes"/>
			<point x="421" y="367"/>
			<point x="447" y="400"/>
			<point x="447" y="472" type="curve"/>
			<point x="423" y="472" type="line" smooth="yes"/>
			<point x="383" y="472"/>
			<point x="371" y="484"/>
			<point x="360" y="522" type="curve" smooth="yes"/>
			<point x="337" y="604" type="line" smooth="yes"/>
			<point x="319" y="668"/>
			<point x="282" y="694"/>
			<point x="211" y="694" type="curve" smooth="yes"/>
			<point x="110" y="694"/>
			<point x="75" y="640"/>
			<point x="75" y="494" type="curve" smooth="yes"/>
			<point x="75" y="186" type="line" smooth="yes"/>
			<point x="75" y="52"/>
			<point x="126" y="-10"/>
		</contour>
	</outline>
	<anchor name="top" x="232" y="680"/>
</glyph>
<glyph name="u-hmnp" format="2">
	<unicode hex="1E127"/>
	<advance width="563"/>
	<outline>
		<contour>
			<point x="289" y="-10" type="curve" smooth="yes"/>
			<point x="446" y="-10"/>
			<point x="511" y="43"/>
			<point x="511" y="189" type="curve" smooth="yes"/>
			<point x="511" y="299"/>
			<point x="471" y="387"/>
			<point x="347" y="432" type="curve"/>
			<point x="347" y="436" type="line"/>
			<point x="484" y="539" type="line"/>
			<point x="484" y="680" type="line"/>
			<point x="99" y="680" type="line"/>
			<point x="68" y="591" type="line"/>
			<point x="68" y="528" type="line"/>
			<point x="357" y="528" type="line"/>
			<point x="357" y="523" type="line"/>
			<point x="256" y="449" type="line"/>
			<point x="256" y="310" type="line"/>
			<point x="402" y="267"/>
			<point x="436" y="237"/>
			<point x="436" y="197" type="curve" smooth="yes"/>
			<point x="436" y="160"/>
			<point x="399" y="152"/>
			<point x="280" y="152" type="curve" smooth="yes"/>
			<point x="162" y="152"/>
			<point x="127" y="160"/>
			<point x="127" y="188" type="curve" smooth="yes"/>
			<point x="127" y="210"/>
			<point x="147" y="217"/>
			<point x="214" y="217" type="curve"/>
			<point x="214" y="283"/>
			<point x="193" y="314"/>
			<point x="147" y="314" type="curve" smooth="yes"/>
			<point x="90" y="314"/>
			<point x="58" y="266"/>
			<point x="58" y="172" type="curve" smooth="yes"/>
			<point x="58" y="40"/>
			<point x="122" y="-10"/>
		</contour>
	</outline>
	<anchor name="top" x="274" y="680"/>
</glyph>
<glyph name="e-hmnp" format="2">
	<unicode hex="1E12A"/>
	<advance width="533"/>
	<outline>
		<contour>
			<point x="140" y="0" type="line"/>
			<point x="215" y="0" type="line"/>
			<point x="215" y="15" type="line" smooth="yes"/>
			<point x="215" y="41"/>
			<point x="223" y="52"/>
			<point x="246" y="52" type="curve" smooth="yes"/>
			<point x="267" y="52"/>
			<point x="285" y="41"/>
			<point x="311" y="24" type="curve" smooth="yes"/>
			<point x="340" y="5"/>
			<point x="367" y="-10"/>
			<point x="404" y="-10" type="curve" smooth="yes"/>
			<point x="466" y="-10"/>
			<point x="496" y="32"/>
			<point x="496" y="98" type="curve" smooth="yes"/>
			<point x="496" y="174"/>
			<point x="468" y="205"/>
			<point x="433" y="205" type="curve" smooth="yes"/>
			<point x="425" y="205"/>
			<point x="422" y="204"/>
			<point x="416" y="201" type="curve"/>
			<point x="420" y="185"/>
			<point x="421" y="174"/>
			<point x="421" y="165" type="curve" smooth="yes"/>
			<point x="421" y="149"/>
			<point x="414" y="142"/>
			<point x="398" y="142" type="curve" smooth="yes"/>
			<point x="374" y="142"/>
			<point x="363" y="149"/>
			<point x="337" y="167" type="curve" smooth="yes"/>
			<point x="309" y="186"/>
			<point x="294" y="195"/>
			<point x="272" y="195" type="curve" smooth="yes"/>
			<point x="242" y="195"/>
			<point x="226" y="181"/>
			<point x="217" y="153" type="curve"/>
			<point x="212" y="153" type="line"/>
			<point x="215" y="211"/>
			<point x="215" y="235"/>
			<point x="215" y="259" type="curve" smooth="yes"/>
			<point x="215" y="303" type="line"/>
			<point x="418" y="303" type="line"/>
			<point x="452" y="387" type="line"/>
			<point x="452" y="450" type="line"/>
			<point x="215" y="450" type="line"/>
			<point x="215" y="680" type="line"/>
			<point x="69" y="680" type="line"/>
			<point x="35" y="590" type="line"/>
			<point x="35" y="527" type="line"/>
			<point x="140" y="527" type="line"/>
		</contour>
	</outline>
	<anchor name="top" x="264" y="680"/>
</glyph>
<glyph name="bSomThw-hmnp" format="2">
  <unicode hex="1E130"/>
  <anchor x="-241" y="680" name="_top"/>
  <outline>
    <contour>
      <point x="-284" y="788" type="line"/>
      <point x="-197" y="788" type="line"/>
      <point x="-197" y="1008" type="line"/>
      <point x="-284" y="1008" type="line"/>
    </contour>
  </outline>
</glyph>
<glyph name="jSomThw-hmnp" format="2">
	<unicode hex="1E132"/>
	<outline>
		<contour>
			<point x="-266" y="773" type="curve" smooth="yes"/>
			<point x="-165" y="773"/>
			<point x="-121" y="828"/>
			<point x="-121" y="938" type="curve"/>
			<point x="-168" y="938" type="line"/>
			<point x="-173" y="896"/>
			<point x="-193" y="879"/>
			<point x="-266" y="879" type="curve" smooth="yes"/>
			<point x="-339" y="879"/>
			<point x="-360" y="896"/>
			<point x="-365" y="938" type="curve"/>
			<point x="-412" y="938" type="line"/>
			<point x="-412" y="828"/>
			<point x="-367" y="773"/>
		</contour>
	</outline>
	<anchor name="_top" x="-267" y="680"/>
</glyph>
<glyph name="vSomThw-hmnp" format="2">
	<unicode hex="1E133"/>
	<outline>
		<contour>
			<point x="-269" y="763" type="curve" smooth="yes"/>
			<point x="-206" y="763"/>
			<point x="-172" y="809"/>
			<point x="-172" y="883" type="curve" smooth="yes"/>
			<point x="-172" y="957"/>
			<point x="-206" y="1003"/>
			<point x="-269" y="1003" type="curve" smooth="yes"/>
			<point x="-331" y="1003"/>
			<point x="-366" y="957"/>
			<point x="-366" y="883" type="curve" smooth="yes"/>
			<point x="-366" y="809"/>
			<point x="-331" y="763"/>
		</contour>
		<contour>
			<point x="-269" y="853" type="curve" smooth="yes"/>
			<point x="-306" y="853"/>
			<point x="-323" y="864"/>
			<point x="-323" y="883" type="curve" smooth="yes"/>
			<point x="-323" y="902"/>
			<point x="-306" y="913"/>
			<point x="-269" y="913" type="curve" smooth="yes"/>
			<point x="-232" y="913"/>
			<point x="-215" y="902"/>
			<point x="-215" y="883" type="curve" smooth="yes"/>
			<point x="-215" y="864"/>
			<point x="-232" y="853"/>
		</contour>
	</outline>
	<anchor name="_top" x="-269" y="680"/>
</glyph>
<glyph name="sSomThw-hmnp" format="2">
	<unicode hex="1E134"/>
	<outline>
		<contour>
			<point x="-408" y="798" type="line"/>
			<point x="-128" y="798" type="line"/>
			<point x="-128" y="890" type="line"/>
			<point x="-408" y="890" type="line"/>
		</contour>
	</outline>
	<anchor name="_top" x="-268" y="680"/>
</glyph>
<glyph name="dSomThw-hmnp" format="2">
	<unicode hex="1E136"/>
	<outline>
		<contour>
			<point x="-261" y="763" type="curve" smooth="yes"/>
			<point x="-190" y="763"/>
			<point x="-156" y="804"/>
			<point x="-156" y="866" type="curve" smooth="yes"/>
			<point x="-156" y="928"/>
			<point x="-190" y="968"/>
			<point x="-261" y="968" type="curve" smooth="yes"/>
			<point x="-331" y="968"/>
			<point x="-366" y="928"/>
			<point x="-366" y="866" type="curve" smooth="yes"/>
			<point x="-366" y="804"/>
			<point x="-331" y="763"/>
		</contour>
		<contour>
			<point x="-261" y="841" type="curve" smooth="yes"/>
			<point x="-305" y="841"/>
			<point x="-323" y="847"/>
			<point x="-323" y="866" type="curve" smooth="yes"/>
			<point x="-323" y="885"/>
			<point x="-305" y="891"/>
			<point x="-261" y="891" type="curve" smooth="yes"/>
			<point x="-217" y="891"/>
			<point x="-199" y="885"/>
			<point x="-199" y="866" type="curve" smooth="yes"/>
			<point x="-199" y="847"/>
			<point x="-217" y="841"/>
		</contour>
		<contour>
			<point x="-295" y="923" type="line"/>
			<point x="-227" y="923" type="line"/>
			<point x="-227" y="1048" type="line"/>
			<point x="-295" y="1048" type="line"/>
		</contour>
	</outline>
	<anchor name="_top" x="-261" y="680"/>
</glyph>
<glyph name="pes-hmnp" format="2">
	<unicode hex="1E138"/>
	<advance width="442"/>
	<outline>
		<contour>
			<point x="288" y="333" type="line"/>
			<point x="363" y="333" type="line"/>
			<point x="363" y="680" type="line"/>
			<point x="288" y="680" type="line"/>
			<point x="283" y="575"/>
			<point x="240" y="542"/>
			<point x="76" y="542" type="curve" smooth="yes"/>
			<point x="53" y="542" type="line"/>
			<point x="53" y="461"/>
			<point x="77" y="417"/>
			<point x="152" y="417" type="curve" smooth="yes"/>
			<point x="218" y="417"/>
			<point x="266" y="450"/>
			<point x="287" y="520" type="curve"/>
			<point x="291" y="520" type="line"/>
			<point x="289" y="458"/>
			<point x="288" y="417"/>
			<point x="288" y="374" type="curve" smooth="yes"/>
		</contour>
	</outline>
</glyph>
<glyph name="khabTheeb-hmnp" format="2">
	<unicode hex="1E139"/>
	<advance width="442"/>
	<outline>
		<contour>
			<point x="79" y="333" type="line"/>
			<point x="154" y="333" type="line"/>
			<point x="159" y="438"/>
			<point x="202" y="471"/>
			<point x="366" y="471" type="curve" smooth="yes"/>
			<point x="389" y="471" type="line"/>
			<point x="389" y="552"/>
			<point x="365" y="596"/>
			<point x="290" y="596" type="curve" smooth="yes"/>
			<point x="224" y="596"/>
			<point x="176" y="563"/>
			<point x="155" y="493" type="curve"/>
			<point x="151" y="493" type="line"/>
			<point x="153" y="554"/>
			<point x="154" y="596"/>
			<point x="154" y="639" type="curve" smooth="yes"/>
			<point x="154" y="680" type="line"/>
			<point x="79" y="680" type="line"/>
		</contour>
	</outline>
</glyph>
<glyph name="khuamLuas-hmnp" format="2">
	<unicode hex="1E13A"/>
	<advance width="456"/>
	<outline>
		<contour>
			<point x="99" y="325" type="curve" smooth="yes"/>
			<point x="108" y="325"/>
			<point x="114" y="326"/>
			<point x="122" y="330" type="curve"/>
			<point x="119" y="340"/>
			<point x="118" y="351"/>
			<point x="118" y="363" type="curve" smooth="yes"/>
			<point x="118" y="418"/>
			<point x="140" y="445"/>
			<point x="228" y="445" type="curve" smooth="yes"/>
			<point x="316" y="445"/>
			<point x="338" y="418"/>
			<point x="338" y="363" type="curve" smooth="yes"/>
			<point x="338" y="351"/>
			<point x="337" y="340"/>
			<point x="334" y="330" type="curve"/>
			<point x="342" y="326"/>
			<point x="348" y="325"/>
			<point x="357" y="325" type="curve" smooth="yes"/>
			<point x="385" y="325"/>
			<point x="408" y="359"/>
			<point x="408" y="429" type="curve" smooth="yes"/>
			<point x="408" y="531"/>
			<point x="352" y="576"/>
			<point x="228" y="576" type="curve" smooth="yes"/>
			<point x="104" y="576"/>
			<point x="48" y="531"/>
			<point x="48" y="429" type="curve" smooth="yes"/>
			<point x="48" y="359"/>
			<point x="71" y="325"/>
		</contour>
		<contour>
			<point x="191" y="537" type="line"/>
			<point x="265" y="537" type="line"/>
			<point x="265" y="680" type="line"/>
			<point x="191" y="680" type="line"/>
		</contour>
	</outline>
</glyph>
<glyph name="poos-hmnp" format="2">
	<unicode hex="1E13B"/>
	<advance width="465"/>
	<outline>
		<contour>
			<point x="234" y="325" type="curve" smooth="yes"/>
			<point x="372" y="325"/>
			<point x="399" y="376"/>
			<point x="399" y="438" type="curve" smooth="yes"/>
			<point x="399" y="484"/>
			<point x="374" y="514"/>
			<point x="349" y="514" type="curve" smooth="yes"/>
			<point x="341" y="514"/>
			<point x="335" y="512"/>
			<point x="330" y="508" type="curve"/>
			<point x="332" y="500"/>
			<point x="333" y="491"/>
			<point x="333" y="484" type="curve" smooth="yes"/>
			<point x="333" y="459"/>
			<point x="317" y="443"/>
			<point x="236" y="443" type="curve" smooth="yes"/>
			<point x="155" y="443"/>
			<point x="140" y="459"/>
			<point x="140" y="477" type="curve" smooth="yes"/>
			<point x="140" y="491"/>
			<point x="154" y="505"/>
			<point x="188" y="520" type="curve" smooth="yes"/>
			<point x="225" y="536"/>
			<point x="297" y="562"/>
			<point x="388" y="581" type="curve"/>
			<point x="388" y="680" type="line"/>
			<point x="92" y="680" type="line"/>
			<point x="68" y="631" type="line"/>
			<point x="68" y="582" type="line"/>
			<point x="125" y="582" type="line" smooth="yes"/>
			<point x="142" y="582"/>
			<point x="178" y="583"/>
			<point x="202" y="585" type="curve"/>
			<point x="202" y="580" type="line"/>
			<point x="106" y="549"/>
			<point x="66" y="516"/>
			<point x="66" y="446" type="curve" smooth="yes"/>
			<point x="66" y="379"/>
			<point x="104" y="325"/>
		</contour>
	</outline>
</glyph>
<glyph name="one-hmnp" format="2">
	<unicode hex="1E141"/>
	<advance width="234"/>
	<outline>
		<contour>
			<point x="79" y="0" type="line"/>
			<point x="155" y="0" type="line"/>
			<point x="155" y="680" type="line"/>
			<point x="79" y="680" type="line"/>
		</contour>
	</outline>
</glyph>
<glyph name="two-hmnp" format="2">
  <advance width="464"/>
  <unicode hex="1E142"/>
  <outline>
    <contour>
      <point x="324" y="0" type="line"/>
      <point x="400" y="0" type="line"/>
      <point x="400" y="429" type="line"/>
      <point x="140" y="429" type="line"/>
      <point x="140" y="680" type="line"/>
      <point x="64" y="680" type="line"/>
      <point x="64" y="277" type="line"/>
      <point x="324" y="277" type="line"/>
    </contour>
  </outline>
</glyph>
<glyph name="three-hmnp" format="2">
	<unicode hex="1E143"/>
	<advance width="636"/>
	<outline>
		<contour>
			<point x="281" y="0" type="line"/>
			<point x="355" y="0" type="line"/>
			<point x="355" y="480" type="line" smooth="yes"/>
			<point x="355" y="539"/>
			<point x="371" y="549"/>
			<point x="438" y="549" type="curve" smooth="yes"/>
			<point x="506" y="549"/>
			<point x="523" y="541"/>
			<point x="523" y="520" type="curve" smooth="yes"/>
			<point x="523" y="498"/>
			<point x="503" y="493"/>
			<point x="438" y="493" type="curve"/>
			<point x="438" y="423"/>
			<point x="457" y="387"/>
			<point x="501" y="387" type="curve" smooth="yes"/>
			<point x="552" y="387"/>
			<point x="592" y="427"/>
			<point x="592" y="531" type="curve" smooth="yes"/>
			<point x="592" y="620"/>
			<point x="551" y="694"/>
			<point x="449" y="694" type="curve" smooth="yes"/>
			<point x="380" y="694"/>
			<point x="341" y="668"/>
			<point x="320" y="606" type="curve"/>
			<point x="315" y="606" type="line"/>
			<point x="295" y="668"/>
			<point x="256" y="694"/>
			<point x="187" y="694" type="curve" smooth="yes"/>
			<point x="85" y="694"/>
			<point x="44" y="620"/>
			<point x="44" y="531" type="curve" smooth="yes"/>
			<point x="44" y="427"/>
			<point x="83" y="387"/>
			<point x="135" y="387" type="curve" smooth="yes"/>
			<point x="179" y="387"/>
			<point x="198" y="423"/>
			<point x="198" y="493" type="curve"/>
			<point x="133" y="493"/>
			<point x="113" y="498"/>
			<point x="113" y="520" type="curve" smooth="yes"/>
			<point x="113" y="541"/>
			<point x="130" y="549"/>
			<point x="198" y="549" type="curve" smooth="yes"/>
			<point x="264" y="549"/>
			<point x="281" y="539"/>
			<point x="281" y="480" type="curve" smooth="yes"/>
		</contour>
		<contour>
			<point x="129" y="181" type="line"/>
			<point x="477" y="181" type="line"/>
			<point x="508" y="276" type="line"/>
			<point x="508" y="333" type="line"/>
			<point x="160" y="333" type="line"/>
			<point x="129" y="240" type="line"/>
		</contour>
	</outline>
</glyph>
<glyph name="five-hmnp" format="2">
	<unicode hex="1E145"/>
	<advance width="651"/>
	<outline>
		<contour>
			<point x="281" y="0" type="line"/>
			<point x="371" y="0" type="line"/>
			<point x="497" y="484" type="line"/>
			<point x="615" y="484" type="line"/>
			<point x="615" y="562" type="line"/>
			<point x="588" y="680" type="line"/>
			<point x="468" y="680" type="line"/>
			<point x="330" y="131" type="line"/>
			<point x="324" y="131" type="line"/>
			<point x="185" y="680" type="line"/>
			<point x="63" y="680" type="line"/>
			<point x="36" y="562" type="line"/>
			<point x="36" y="484" type="line"/>
			<point x="153" y="484" type="line"/>
		</contour>
	</outline>
</glyph>
<glyph name="seven-hmnp" format="2">
	<unicode hex="1E147"/>
	<advance width="605"/>
	<outline>
		<contour>
			<point x="314" y="-10" type="curve" smooth="yes"/>
			<point x="488" y="-10"/>
			<point x="551" y="37"/>
			<point x="551" y="198" type="curve" smooth="yes"/>
			<point x="551" y="304"/>
			<point x="518" y="359"/>
			<point x="439" y="384" type="curve"/>
			<point x="439" y="388" type="line"/>
			<point x="500" y="409"/>
			<point x="530" y="457"/>
			<point x="530" y="539" type="curve" smooth="yes"/>
			<point x="530" y="637"/>
			<point x="484" y="694"/>
			<point x="406" y="694" type="curve" smooth="yes"/>
			<point x="339" y="694"/>
			<point x="301" y="645"/>
			<point x="301" y="556" type="curve"/>
			<point x="417" y="556"/>
			<point x="454" y="544"/>
			<point x="454" y="504" type="curve" smooth="yes"/>
			<point x="454" y="460"/>
			<point x="411" y="436"/>
			<point x="310" y="418" type="curve"/>
			<point x="310" y="277" type="line"/>
			<point x="439" y="267"/>
			<point x="478" y="249"/>
			<point x="478" y="207" type="curve" smooth="yes"/>
			<point x="478" y="165"/>
			<point x="439" y="152"/>
			<point x="313" y="152" type="curve" smooth="yes"/>
			<point x="178" y="152"/>
			<point x="152" y="167"/>
			<point x="152" y="254" type="curve" smooth="yes"/>
			<point x="152" y="680" type="line"/>
			<point x="77" y="680" type="line"/>
			<point x="77" y="228" type="line" smooth="yes"/>
			<point x="77" y="37"/>
			<point x="140" y="-10"/>
		</contour>
	</outline>
</glyph>
<glyph name="nine-hmnp" format="2">
	<unicode hex="1E149"/>
	<advance width="650"/>
	<outline>
		<contour>
			<point x="400" y="0" type="curve"/>
			<point x="482" y="0" type="line"/>
			<point x="613" y="680" type="line"/>
			<point x="537" y="680" type="line"/>
			<point x="439" y="170" type="line"/>
			<point x="434" y="168" type="line"/>
			<point x="355" y="207"/>
			<point x="285" y="240"/>
			<point x="215" y="267" type="curve"/>
			<point x="215" y="271" type="line"/>
			<point x="330" y="310"/>
			<point x="386" y="384"/>
			<point x="386" y="501" type="curve" smooth="yes"/>
			<point x="386" y="630"/>
			<point x="327" y="694"/>
			<point x="218" y="694" type="curve" smooth="yes"/>
			<point x="108" y="694"/>
			<point x="51" y="633"/>
			<point x="51" y="524" type="curve" smooth="yes"/>
			<point x="51" y="442"/>
			<point x="82" y="390"/>
			<point x="140" y="390" type="curve" smooth="yes"/>
			<point x="184" y="390"/>
			<point x="207" y="422"/>
			<point x="207" y="487" type="curve"/>
			<point x="136" y="487"/>
			<point x="120" y="493"/>
			<point x="120" y="513" type="curve" smooth="yes"/>
			<point x="120" y="534"/>
			<point x="139" y="542"/>
			<point x="210" y="542" type="curve" smooth="yes"/>
			<point x="290" y="542"/>
			<point x="310" y="529"/>
			<point x="310" y="481" type="curve" smooth="yes"/>
			<point x="310" y="392"/>
			<point x="240" y="340"/>
			<point x="84" y="301" type="curve"/>
			<point x="84" y="155" type="line"/>
			<point x="173" y="121"/>
			<point x="271" y="77"/>
		</contour>
	</outline>
</glyph>
<glyph name="circledCa-hmnp" format="2">
	<unicode hex="1E14F"/>
	<advance width="810"/>
	<outline>
		<contour>
			<point x="405" y="-10" type="curve" smooth="yes"/>
			<point x="617" y="-10"/>
			<point x="750" y="127"/>
			<point x="750" y="345" type="curve" smooth="yes"/>
			<point x="750" y="563"/>
			<point x="617" y="700"/>
			<point x="405" y="700" type="curve" smooth="yes"/>
			<point x="193" y="700"/>
			<point x="60" y="563"/>
			<point x="60" y="345" type="curve" smooth="yes"/>
			<point x="60" y="127"/>
			<point x="193" y="-10"/>
		</contour>
		<contour>
			<point x="344" y="138" type="curve" smooth="yes"/>
			<point x="422" y="138"/>
			<point x="452" y="182"/>
			<point x="452" y="301" type="curve" smooth="yes"/>
			<point x="452" y="402"/>
			<point x="419" y="447"/>
			<point x="343" y="447" type="curve" smooth="yes"/>
			<point x="302" y="447" type="line"/>
			<point x="302" y="542" type="line"/>
			<point x="249" y="542" type="line"/>
			<point x="249" y="353" type="line"/>
			<point x="346" y="353" type="line" smooth="yes"/>
			<point x="389" y="353"/>
			<point x="399" y="340"/>
			<point x="399" y="290" type="curve" smooth="yes"/>
			<point x="399" y="242"/>
			<point x="390" y="236"/>
			<point x="338" y="236" type="curve" smooth="yes"/>
			<point x="288" y="236"/>
			<point x="279" y="240"/>
			<point x="279" y="257" type="curve" smooth="yes"/>
			<point x="279" y="271"/>
			<point x="288" y="274"/>
			<point x="338" y="274" type="curve"/>
			<point x="338" y="311"/>
			<point x="323" y="329"/>
			<point x="296" y="329" type="curve" smooth="yes"/>
			<point x="258" y="329"/>
			<point x="235" y="302"/>
			<point x="235" y="249" type="curve" smooth="yes"/>
			<point x="235" y="176"/>
			<point x="269" y="138"/>
		</contour>
		<contour>
			<point x="405" y="57" type="curve" smooth="yes"/>
			<point x="232" y="57"/>
			<point x="124" y="167"/>
			<point x="124" y="345" type="curve" smooth="yes"/>
			<point x="124" y="523"/>
			<point x="232" y="633"/>
			<point x="405" y="633" type="curve" smooth="yes"/>
			<point x="578" y="633"/>
			<point x="686" y="523"/>
			<point x="686" y="345" type="curve" smooth="yes"/>
			<point x="686" y="167"/>
			<point x="578" y="57"/>
		</contour>
		<contour>
			<point x="514" y="143" type="line"/>
			<point x="567" y="143" type="line"/>
			<point x="567" y="439" type="line" smooth="yes"/>
			<point x="567" y="516"/>
			<point x="530" y="556"/>
			<point x="462" y="556" type="curve" smooth="yes"/>
			<point x="396" y="556"/>
			<point x="368" y="520"/>
			<point x="368" y="439" type="curve" smooth="yes"/>
			<point x="368" y="400" type="line"/>
			<point x="411" y="400" type="line"/>
			<point x="411" y="421" type="line" smooth="yes"/>
			<point x="411" y="448"/>
			<point x="425" y="458"/>
			<point x="462" y="458" type="curve" smooth="yes"/>
			<point x="499" y="458"/>
			<point x="514" y="449"/>
			<point x="514" y="424" type="curve" smooth="yes"/>
		</contour>
	</outline>
</glyph>
